<svg width="44" height="44" viewBox="0 0 44 44" fill="none" xmlns="http://www.w3.org/2000/svg">
<rect x="0.5" y="0.5" width="43" height="43" rx="3.5" stroke="#3364BA"/>
<path d="M24.2208 11.1667C26.4289 11.3993 28.4915 12.3787 30.0674 13.9428C31.6433 15.5069 32.6382 17.562 32.8875 19.7683M24.2208 15.5C25.2863 15.7101 26.264 16.2356 27.0271 17.0083C27.7901 17.7811 28.3033 18.7653 28.5 19.8333M32.8333 27.33V30.58C32.8345 30.8817 32.7727 31.1804 32.6519 31.4568C32.531 31.7332 32.3537 31.9814 32.1314 32.1854C31.9091 32.3893 31.6466 32.5446 31.3608 32.6413C31.075 32.7379 30.7721 32.7738 30.4716 32.7467C27.138 32.3844 23.9359 31.2453 21.1225 29.4208C18.5049 27.7576 16.2857 25.5384 14.6225 22.9208C12.7916 20.0946 11.6522 16.8769 11.2966 13.5283C11.2696 13.2288 11.3052 12.9268 11.4012 12.6418C11.4972 12.3567 11.6515 12.0947 11.8543 11.8726C12.0571 11.6504 12.3039 11.4729 12.5791 11.3514C12.8542 11.2299 13.1517 11.167 13.4525 11.1667H16.7025C17.2282 11.1615 17.7379 11.3477 18.1365 11.6905C18.5352 12.0333 18.7956 12.5094 18.8691 13.03C19.0063 14.0701 19.2607 15.0913 19.6275 16.0742C19.7732 16.4619 19.8048 16.8833 19.7184 17.2885C19.632 17.6936 19.4312 18.0655 19.14 18.36L17.7641 19.7358C19.3063 22.448 21.552 24.6937 24.2641 26.2358L25.64 24.86C25.9345 24.5687 26.3064 24.368 26.7115 24.2816C27.1166 24.1952 27.5381 24.2267 27.9258 24.3725C28.9087 24.7393 29.9299 24.9937 30.97 25.1308C31.4962 25.2051 31.9768 25.4701 32.3204 25.8756C32.6639 26.2811 32.8465 26.7987 32.8333 27.33Z" stroke="#3364BA" stroke-width="2" stroke-linecap="round" stroke-linejoin="round"/>
</svg>
