<svg width="44" height="44" viewBox="0 0 44 44" fill="none" xmlns="http://www.w3.org/2000/svg">
<rect width="44" height="44" rx="4" fill="#FEE502"/>
<path d="M10.1836 10.6956H14.49L17.3753 25.1113C17.4738 25.607 17.7434 26.0522 18.1371 26.3691C18.5307 26.686 19.0233 26.8543 19.5285 26.8446H29.9931C30.4984 26.8543 30.9909 26.686 31.3846 26.3691C31.7782 26.0522 32.0479 25.607 32.1463 25.1113L33.8689 16.0786H15.5666M19.873 32.2276C19.873 32.8222 19.391 33.3043 18.7964 33.3043C18.2018 33.3043 17.7198 32.8222 17.7198 32.2276C17.7198 31.6331 18.2018 31.151 18.7964 31.151C19.391 31.151 19.873 31.6331 19.873 32.2276ZM31.7157 32.2276C31.7157 32.8222 31.2337 33.3043 30.6391 33.3043C30.0445 33.3043 29.5625 32.8222 29.5625 32.2276C29.5625 31.6331 30.0445 31.151 30.6391 31.151C31.2337 31.151 31.7157 31.6331 31.7157 32.2276Z" stroke="#101011" stroke-width="2" stroke-linecap="round" stroke-linejoin="round"/>
</svg>
