<svg width="99" height="92" viewBox="0 0 99 92" fill="none" xmlns="http://www.w3.org/2000/svg">
<g clip-path="url(#clip0_104_22)">
<path fill-rule="evenodd" clip-rule="evenodd" d="M42.3359 10.8957C43.0328 11.7105 44.3484 13.0839 45.5078 14.1814C46.45 15.1587 47.5516 15.9655 48.7644 16.5668C49.7537 16.9905 50.8159 17.2138 51.8907 17.2239C52.7048 17.2239 53.1086 17.0465 53.2975 16.5997C53.4916 15.976 53.471 15.3044 53.2389 14.6939C52.9747 13.9134 52.5483 13.1987 51.9884 12.5977C51.376 11.9666 50.6708 11.4346 49.8977 11.0205C49.0105 10.5099 48.0659 10.1083 47.084 9.82452C46.0513 9.5428 44.9882 9.39054 43.9186 9.37109C43.2332 9.31504 42.5439 9.41144 41.8995 9.65366C41.5673 9.83766 41.639 10.0874 42.3359 10.8957ZM24.2293 20.2271C24.7433 19.3273 25.3742 18.5007 26.1051 17.7694C26.9258 16.9997 27.9009 16.417 28.9644 16.0608C29.9465 15.7326 30.9945 15.658 32.0125 15.8439C32.8576 16.014 33.668 16.3273 34.4094 16.7705C34.8653 17.0597 34.8327 17.1845 34.5982 17.5919C34.2501 18.2154 33.811 18.7826 33.2956 19.2742C32.5584 19.8982 31.7244 20.3955 30.8271 20.7462C29.7725 21.196 28.6834 21.5586 27.5706 21.8305C26.4177 22.1065 25.2454 22.2839 24.6266 22.3759C24.1368 22.4116 23.6753 22.6211 23.324 22.9674C22.6727 23.4537 21.4742 24.4197 20.3475 25.4119C19.2207 26.4042 18.1851 27.4359 17.4621 28.1654C16.7392 28.8948 16.3354 29.3417 16.0944 29.5257C15.8534 29.7097 15.7687 29.6505 15.7361 29.5257C15.7036 29.4008 15.7361 29.3088 16.1204 28.7962C16.5047 28.2837 17.2798 27.4031 18.2111 26.4502C19.1425 25.4974 20.2302 24.4788 21.129 23.7099C22.0279 22.9411 22.7378 22.3957 23.083 22.1131C23.3175 21.9704 23.4985 21.7531 23.5975 21.4954C23.7738 21.0561 23.9851 20.632 24.2293 20.2271ZM33.8688 22.2708C34.0868 21.4308 34.4294 20.6287 34.8848 19.8919C35.4831 18.9776 36.2893 18.2206 37.2361 17.6839C38.0675 17.2318 39.0012 17.0053 39.9456 17.0268C40.5822 17.0384 41.2113 17.1676 41.8018 17.4079C42.1926 17.5657 42.3163 17.6708 42.3815 17.8219C42.4466 17.9731 42.4401 18.1702 42.2577 18.6697C41.9867 19.4388 41.5585 20.1418 41.0007 20.7331C40.1572 21.5359 39.1947 22.2011 38.1479 22.7045C37.1232 23.2237 36.0606 23.663 34.9695 24.0188C33.9339 24.3737 32.9244 24.6759 31.9734 25.0177C31.0736 25.34 30.2021 25.7379 29.3682 26.2071C28.6192 26.6342 28.0134 27.0811 27.6943 27.2914C27.3752 27.5017 27.3296 27.4688 27.4794 27.2257C27.7865 26.7457 28.1877 26.3342 28.6582 26.0165C29.4942 25.4871 30.3646 25.015 31.2635 24.6037C32.1298 24.1699 32.8136 23.8217 33.1784 23.6048C33.5431 23.3879 33.6017 23.3025 33.6343 23.1711C33.6669 23.0397 33.7059 22.8294 33.8688 22.2708ZM42.0298 21.8108C42.5513 20.9212 43.1961 20.1113 43.9446 19.4057C44.682 18.7341 45.5798 18.2675 46.5499 18.0519C47.3749 17.8624 48.2294 17.8446 49.0614 17.9993C49.8935 18.1541 50.6855 18.4784 51.3892 18.9522C51.8581 19.3005 51.9819 19.6094 51.9298 19.9642C51.8225 20.3841 51.5962 20.7632 51.2785 21.0551C50.8316 21.5268 50.3099 21.9199 49.7348 22.2182C48.9344 22.6279 48.063 22.8778 47.1686 22.9542C46.0202 23.0554 44.8651 23.0554 43.7167 22.9542C43.1528 22.9471 42.5947 22.838 42.0688 22.6322C41.8018 22.4942 41.6846 22.4022 42.0167 21.8108H42.0298ZM54.2484 13.1891C54.6076 14.5466 55.119 15.8584 55.7725 17.0991C56.5359 18.4694 57.5173 19.7037 58.6774 20.7528C59.409 21.4113 60.2547 21.9282 61.1719 22.2774C61.6131 22.5272 62.1255 22.6176 62.6244 22.5337C62.9044 22.4022 62.9826 22.0145 63.0477 21.3114C63.1574 20.4116 63.1244 19.4999 62.95 18.6105C62.6822 17.5582 62.1217 16.6052 61.3348 15.8637C60.3846 14.9551 59.3177 14.1793 58.1629 13.5571C57.294 13.0827 56.3904 12.6763 55.4599 12.3414C55.1054 12.1932 54.7365 12.0831 54.3592 12.0128C54.1833 12.0128 54.1182 12.0128 54.0791 12.1245C54.04 12.2362 54.014 12.3348 54.2484 13.1891ZM50.3861 23.2894C51.2648 22.6295 52.2406 22.1128 53.278 21.7582C54.4351 21.4134 55.6582 21.3593 56.8407 21.6005C57.819 21.7685 58.7258 22.226 59.4459 22.9148C59.9225 23.4307 60.2531 24.0661 60.4034 24.7548C60.5076 25.2148 60.449 25.3725 60.0582 25.5959C59.4662 25.9018 58.8349 26.123 58.1824 26.2531C57.3255 26.4328 56.4444 26.4638 55.5771 26.3451C54.4684 26.2056 53.377 25.9501 52.3206 25.5828C51.5747 25.3278 50.8686 24.9672 50.2233 24.5117C49.8456 24.2225 49.8195 24.0779 49.8195 23.9465C49.8195 23.8151 49.8195 23.7362 50.3861 23.2894ZM57.4269 29.1051C58.1502 29.8844 58.939 30.599 59.7846 31.2408C60.7799 32.0556 61.9372 32.6451 63.178 32.9691C64.1607 33.1413 65.1696 33.0874 66.1283 32.8114C66.7145 32.6405 66.7145 32.5091 66.6429 32.0754C66.5439 31.419 66.3485 30.7812 66.0632 30.1828C65.673 29.406 65.0896 28.7448 64.3699 28.2639C63.5402 27.7316 62.5993 27.4009 61.6213 27.2979C60.6437 27.2017 59.6571 27.2593 58.6969 27.4688C58.102 27.583 57.5255 27.7798 56.984 28.0537C56.7104 28.2114 56.7625 28.2705 56.8211 28.3757C56.9838 28.6572 57.188 28.9121 57.4269 29.1314V29.1051ZM62.4746 34.4608C63.3486 34.3965 64.2271 34.4674 65.0798 34.6711C66.1296 34.8951 67.1294 35.3116 68.0302 35.8999C68.6587 36.3396 69.2182 36.8712 69.691 37.4771L69.8408 37.6545C69.7887 37.4311 69.7236 37.1419 69.6259 36.7345C69.2892 35.1126 68.8137 33.5231 68.206 31.9834C67.4635 30.2091 66.4149 28.5662 65.7571 26.9628C65.18 25.512 64.8415 23.9761 64.7542 22.4154C64.6859 21.3208 64.6968 20.2227 64.7867 19.1297C64.7823 18.8652 64.8174 18.6016 64.8909 18.3477C64.8909 18.2951 64.8909 18.2754 64.9886 18.2622C65.1383 18.2491 65.2881 18.2886 65.4119 18.3739C65.8294 18.6367 66.2221 18.9382 66.5842 19.2742C67.3899 19.9563 68.1233 20.7205 68.7727 21.5545C69.5295 22.5438 70.115 23.6546 70.5052 24.8402C70.8289 25.8645 70.9533 26.9424 70.8699 28.0142C70.8373 28.7747 70.6126 29.5142 70.2186 30.1631C69.9522 30.5329 69.607 30.8382 69.209 31.0568C68.9811 31.1882 68.9811 31.1882 69.1569 31.5957C69.3328 32.0031 69.665 32.8377 70.0036 33.8957C70.2577 34.7039 70.5052 35.6437 70.655 36.3534C70.8113 35.4202 71.0718 33.9219 71.404 32.4762C71.7817 30.8202 72.2507 29.2299 72.4852 28.4348C72.7196 27.6397 72.7196 27.6331 73.0192 28.0471C74.4144 29.8827 75.3685 32.0196 75.8069 34.2899C76.072 35.543 76.1136 36.8335 75.9306 38.1014C75.7847 38.9816 75.4923 39.8304 75.0644 40.6117C74.897 41.0242 74.6391 41.3928 74.3088 41.6894C74.0978 41.8221 73.8542 41.8926 73.6054 41.8931H73.1039H69.0397C68.3565 41.8148 67.6934 41.6075 67.0858 41.2819C66.0749 40.7276 65.1709 39.9955 64.4155 39.1199C63.7742 38.3464 63.2436 37.486 62.8393 36.5637C62.5961 36.0583 62.3788 35.5406 62.188 35.0128C62.0056 34.6908 61.9796 34.5134 62.4746 34.4608ZM19.0318 16.7771C19.7938 16.4025 21.2919 15.5219 22.9918 14.7005C24.6917 13.8791 26.6066 13.1365 27.6552 12.7291C28.0934 12.5174 28.5653 12.3861 29.049 12.3414C29.4527 12.4014 29.8415 12.5373 30.1954 12.7422C31.0421 13.1168 32.6117 13.8331 33.8232 14.3982C34.8349 14.926 35.9129 15.3128 37.0277 15.5482C38.1837 15.7295 39.3596 15.7406 40.5187 15.5811C41.216 15.5474 41.8776 15.2603 42.3815 14.7728C42.5458 14.5808 42.6556 14.3474 42.6992 14.0975C42.7428 13.8476 42.7185 13.5905 42.629 13.3534C42.3795 12.6782 41.9569 12.0818 41.4045 11.6251C40.7115 11.0282 39.9046 10.581 39.0337 10.3108C37.8935 9.96074 36.698 9.83142 35.5101 9.92966C33.8106 10.0614 32.1272 10.354 30.4819 10.8037C28.7175 11.2775 26.9927 11.8905 25.3235 12.6371C23.6825 13.3611 22.086 14.1841 20.5429 15.1014C19.7796 15.529 19.0874 16.0745 18.4912 16.7179C18.2372 17.0268 18.2372 17.1517 19.0318 16.7771Z" fill="#EFC825"/>
<path fill-rule="evenodd" clip-rule="evenodd" d="M85.8758 56.5276C81.6423 74.5857 65.8348 87.998 46.9794 87.998C41.7907 87.9973 36.6531 86.965 31.8599 84.96C27.0668 82.9551 22.7121 80.0176 19.0444 76.314C24.1526 80.5341 30.216 83.4144 36.6944 84.6971C43.1729 85.9799 49.8654 85.6263 56.1756 83.6681C62.4858 81.7091 68.218 78.2059 72.8612 73.4705C77.5045 68.7351 80.9147 62.9149 82.7886 56.5276H85.8758ZM60.4746 8.10931C67.1427 10.6132 73.0423 14.8396 77.5833 20.3658C82.1249 25.8921 85.1483 32.5245 86.3513 39.5996L86.7551 41.9062H84.2996L84.0326 39.5996C83.1019 32.76 80.451 26.2748 76.3314 20.7624C72.2119 15.2499 66.7623 10.8938 60.5007 8.10931H60.4746Z" fill="url(#paint0_linear_104_22)"/>
<path fill-rule="evenodd" clip-rule="evenodd" d="M96.4275 56.5277C93.8138 66.2006 88.2372 74.7934 80.4944 81.0776C72.7516 87.3619 63.2382 91.0169 53.3134 91.521C43.3887 92.0243 33.5601 89.3504 25.2313 83.8817C16.9025 78.4129 10.4996 70.4286 6.93701 61.0686C10.9909 69.182 17.2982 75.9296 25.0891 80.4869C32.8799 85.0442 41.8172 87.2147 50.8102 86.733C59.8032 86.252 68.4626 83.1391 75.732 77.7755C83.0007 72.4112 88.5648 65.0286 91.7446 56.5277H96.4275ZM69.4696 0.289429C77.271 3.65805 84.0271 9.0877 89.026 16.0061C94.0255 22.9245 97.0815 31.0754 97.8735 39.5997L98.0689 41.9063H94.4866L94.441 39.5997C94.1616 31.3886 91.6951 23.4051 87.3007 16.4879C82.9069 9.57076 76.7474 3.97532 69.4696 0.289429Z" fill="url(#paint1_linear_104_22)"/>
<path fill-rule="evenodd" clip-rule="evenodd" d="M72.1981 56.5278C70.4761 62.9746 66.8671 68.7477 61.8427 73.0934C56.8185 77.4397 50.6125 80.1563 44.0348 80.889C37.4569 81.6224 30.8129 80.337 24.9699 77.2025C19.1269 74.0679 14.3563 69.228 11.2808 63.3161C14.5113 68.6603 19.1901 72.96 24.7646 75.7075C30.339 78.455 36.5764 79.536 42.74 78.8217C48.9037 78.108 54.7362 75.6299 59.5487 71.6792C64.3612 67.7291 67.9529 62.4714 69.899 56.5278H72.1981Z" fill="#EFC825"/>
<path d="M20.3735 58.821C20.6803 58.7961 20.989 58.8116 21.2919 58.867C21.5068 58.9261 21.5785 59.0641 22.0279 59.8658C22.4773 60.6675 23.2914 62.133 23.7474 62.9807C23.9932 63.3773 24.1942 63.8005 24.3466 64.2424C24.4058 64.4058 24.4058 64.585 24.3466 64.7484C24.1859 65.0334 23.984 65.2926 23.7474 65.5173C23.3696 65.9311 22.7574 66.5686 22.4447 66.976C22.1321 67.3834 22.1256 67.5411 22.1907 67.7448C22.2558 67.9486 22.4056 68.1917 23.096 68.9014C24.0498 69.9016 25.0895 70.8137 26.2028 71.6286C27.1087 72.2535 28.0863 72.7654 29.1142 73.1531C29.7069 73.3831 29.7655 73.3766 30.1889 72.9166C30.6122 72.4566 31.3677 71.5431 31.7911 71.0897C32.2145 70.6363 32.2796 70.656 32.6118 70.8006C33.2132 71.0792 33.8336 71.3138 34.468 71.5037C35.3929 71.7731 36.6629 72.036 37.3273 72.2068C37.9916 72.3777 38.0502 72.4631 38.0958 72.6866C38.1444 73.0769 38.1705 73.4699 38.174 73.8628C38.1724 74.4911 38.2094 75.1186 38.2847 75.7423C38.3694 76.2351 38.5192 76.3994 39.4506 76.4586C40.8672 76.4737 42.2822 76.3574 43.6776 76.1103C44.9925 75.9066 46.2755 75.5313 47.4943 74.9931C48.2173 74.612 48.1456 74.336 48.0154 73.6788C47.8851 73.0217 47.6311 72.0623 47.579 71.5694C47.5269 71.0766 47.6637 71.0634 48.315 70.7546C48.9663 70.4457 50.1387 69.8411 51.07 69.3023C52.0014 68.7634 52.6853 68.2903 53.0696 68.0603C53.4539 67.8303 53.532 67.8368 53.9814 68.2114C54.4308 68.586 55.2385 69.3154 55.7009 69.7163C56.1633 70.1171 56.2936 70.1763 56.476 70.1237C56.6583 70.0711 56.8993 69.9003 57.6809 69.0526C58.4625 68.2048 59.7912 66.6737 60.6965 65.4844C61.3167 64.6989 61.8517 63.8485 62.2922 62.9478C62.5072 62.455 62.4681 62.3433 61.8884 61.8373C61.3087 61.3313 60.182 60.4244 59.0617 59.5241" stroke="#808180" stroke-width="1.5" stroke-miterlimit="22.93"/>
<path d="M57.9672 41.2687C57.8369 40.9993 57.9672 41.2687 57.7131 40.7298C57.4984 40.307 57.3176 39.8675 57.1726 39.4155C57.1302 39.2482 57.1487 39.071 57.2247 38.9161C57.4028 38.6364 57.6225 38.386 57.876 38.1735C58.2733 37.7793 58.9181 37.1747 59.2437 36.787C59.5694 36.3993 59.5954 36.2284 59.5368 36.0247C59.4782 35.821 59.3414 35.5713 58.6901 34.8221C57.781 33.783 56.7852 32.8244 55.7136 31.957C54.8375 31.2902 53.8865 30.7299 52.8804 30.2878C52.2942 30.0315 52.2291 30.0381 51.7927 30.4784C51.3563 30.9187 50.5487 31.7927 50.1058 32.2198C49.6629 32.647 49.5912 32.6338 49.2656 32.4761C48.6833 32.1661 48.0779 31.9024 47.4549 31.6875C46.5366 31.3655 45.286 31.0304 44.6282 30.8398C43.9704 30.6493 43.9183 30.5507 43.8857 30.3207C43.8608 29.929 43.8608 29.5361 43.8857 29.1444C43.9221 28.5185 43.9221 27.8909 43.8857 27.265C43.8271 26.7721 43.6773 26.6078 42.7524 26.4961C41.3377 26.4096 39.918 26.458 38.5124 26.6407C37.1901 26.7767 35.8915 27.0883 34.6501 27.5673C33.9076 27.9155 33.9466 28.2244 34.0639 28.8815C34.1811 29.5387 34.3765 30.5178 34.4026 31.0107C34.4286 31.5035 34.2983 31.5101 33.6275 31.7861C32.9566 32.0621 31.7647 32.6141 30.8073 33.1004C29.8499 33.5867 29.1464 34.027 28.7556 34.2373C28.3649 34.4475 28.2802 34.4344 27.8503 34.0467C27.4205 33.659 26.6063 32.9033 26.1634 32.4893C25.7205 32.0753 25.5903 31.9964 25.4079 32.0424C25.2255 32.0884 24.978 32.2395 24.1574 33.0544C23.3367 33.8693 21.9364 35.3215 20.9789 36.4715C20.3213 37.2272 19.745 38.051 19.2595 38.9293C19.0185 39.409 19.0576 39.5273 19.4093 39.8755C19.761 40.2238 20.4318 40.8218 21.0962 41.4133" stroke="#808180" stroke-width="1.5" stroke-miterlimit="22.93"/>
<path d="M95.9388 49.365V45.7113C95.6868 45.641 95.4217 45.6312 95.1651 45.6825C94.9084 45.7338 94.6668 45.8449 94.4603 46.007C94.1568 46.4358 94.0181 46.9612 94.0695 47.4855C94.0331 47.9823 94.1444 48.4787 94.3887 48.9116C94.5085 49.0684 94.6655 49.1922 94.8453 49.2715C95.0257 49.3508 95.2224 49.3829 95.4178 49.365H95.9388ZM95.6132 50.3376C95.4985 50.3365 95.3859 50.3642 95.2849 50.4181C95.1833 50.4721 95.0973 50.5505 95.0335 50.6464C94.842 50.9423 94.6909 51.2627 94.5841 51.5993L93.7895 53.9387V54.3921H91.5945V53.735C91.7698 53.6723 91.9189 53.5519 92.0179 53.3933C92.1553 53.1377 92.2726 52.8719 92.3696 52.5981L92.7474 51.4416C92.9219 50.8769 93.2919 50.3942 93.7895 50.0813V49.9958C93.3121 49.811 92.9076 49.4728 92.6393 49.0334C92.3709 48.5941 92.2537 48.0779 92.3045 47.5644C92.3045 45.639 93.1642 44.673 94.9097 44.673H98.505V45.3301C98.3923 45.352 98.2868 45.4003 98.1963 45.4711C98.1058 45.5419 98.0328 45.6331 97.984 45.7376C97.8439 46.2326 97.7905 46.7486 97.8276 47.2621V51.9278C97.8094 52.3686 97.8446 52.8099 97.9318 53.2421C97.9774 53.3716 98.0543 53.4877 98.1553 53.5795C98.2569 53.6714 98.3793 53.7361 98.5115 53.7678V54.425H95.2875V53.7678C95.4021 53.7528 95.5116 53.7072 95.6027 53.6356C95.6946 53.5639 95.7656 53.469 95.8086 53.3604C95.9264 52.8436 95.9701 52.3125 95.9388 51.7833V50.3376H95.6132ZM90.2724 51.9804C90.2431 52.4236 90.2913 52.8685 90.4157 53.2947C90.4665 53.3972 90.5368 53.4884 90.6228 53.5629C90.7088 53.6374 90.8091 53.6937 90.9172 53.7284V54.3856H87.8104V53.7284C87.927 53.6973 88.0331 53.6361 88.1185 53.5509C88.2044 53.4656 88.2663 53.3591 88.2989 53.2421C88.4037 52.8125 88.4454 52.3697 88.4226 51.9278V48.1953L86.2277 52.5193C86.2277 53.2356 86.4231 53.643 86.8204 53.7481V54.4053H83.7332V53.7481C83.855 53.7101 83.9663 53.6421 84.0556 53.5505C84.1454 53.4587 84.2112 53.346 84.2477 53.2224C84.3441 52.6828 84.3812 52.134 84.3584 51.5861V47.4921C84.3949 46.9214 84.3506 46.3484 84.2282 45.7901C84.1819 45.6814 84.1142 45.5833 84.0289 45.5019C83.9442 45.4205 83.8432 45.3576 83.7332 45.317V44.6598H86.8204V45.317C86.6993 45.3554 86.5892 45.4236 86.5006 45.5153C86.412 45.607 86.3475 45.7195 86.3124 45.8427C86.2225 46.3875 86.1873 46.9402 86.2082 47.4921V50.7778L88.3966 46.467C88.3966 45.8098 88.2012 45.4287 87.8104 45.317V44.6598H90.9042V45.317C90.7824 45.3623 90.6723 45.4341 90.5811 45.5272C90.4899 45.6203 90.4202 45.7325 90.3766 45.8558C90.2815 46.4 90.2463 46.9533 90.2724 47.5053V51.9804ZM78.2947 51.1787C78.2595 51.7846 78.3507 52.3912 78.5617 52.9596C78.6268 53.1301 78.7428 53.2764 78.8926 53.3786C79.043 53.4809 79.2208 53.5341 79.4019 53.5313C79.7992 53.5313 80.0988 53.2158 80.3072 52.585C80.5443 51.7055 80.6479 50.7949 80.6134 49.8841C80.6479 48.9124 80.556 47.9403 80.3398 46.9927C80.1509 46.3684 79.8643 46.053 79.4736 46.053C79.2645 46.0571 79.0632 46.1362 78.9069 46.2764C78.7089 46.4559 78.5565 46.6815 78.464 46.9336C78.3448 47.232 78.2875 47.5517 78.2947 47.8733V51.1787ZM78.2947 56.1467C78.2862 56.4934 78.3018 56.8403 78.3403 57.185C78.367 57.356 78.4295 57.5193 78.5226 57.6647C78.6457 57.8071 78.8099 57.908 78.9916 57.9538V58.611H75.8001V57.9538C75.9623 57.8936 76.1062 57.7917 76.217 57.6581C76.3069 57.5147 76.3648 57.3532 76.3863 57.185C76.4286 56.8406 76.4456 56.4936 76.4384 56.1467V47.6038C76.4384 47.1438 76.4384 46.8153 76.4384 46.6181C76.4326 46.4509 76.4169 46.2842 76.3928 46.1187C76.3726 46.0016 76.3401 45.887 76.2951 45.777C76.2469 45.6872 76.1805 45.6089 76.0997 45.547C75.9897 45.4658 75.8666 45.4057 75.735 45.3696V44.7124L77.5066 44.6336H78.3012L78.2035 46.053H78.2816C78.5578 45.6101 78.903 45.2152 79.3042 44.8833C79.5836 44.6564 79.9295 44.5293 80.2877 44.5218C80.6642 44.5234 81.0308 44.6422 81.337 44.8622C81.6437 45.0822 81.8756 45.3926 82.0007 45.7507C82.4416 46.9243 82.6363 48.1773 82.5738 49.4307C82.5934 50.3883 82.4794 51.3439 82.2351 52.2696C82.0697 52.9242 81.7219 53.5172 81.2321 53.9781C80.7749 54.3697 80.19 54.5758 79.5908 54.5564C79.144 54.5577 78.7017 54.4706 78.2882 54.3001L78.2947 56.1467ZM68.7008 44.673H75.1488V47.7878H74.3542C74.3666 47.2809 74.2891 46.7758 74.1263 46.2961C74.067 46.156 73.9667 46.0379 73.8384 45.9578C73.7101 45.8778 73.5603 45.8399 73.4098 45.8493H72.8497V51.7241C72.8243 52.2505 72.8633 52.778 72.9669 53.2947C73.0053 53.4164 73.0783 53.5241 73.1766 53.6046C73.275 53.6852 73.3948 53.735 73.5205 53.7481V54.4053H70.3421V53.7481C70.4685 53.7265 70.587 53.6713 70.686 53.5882C70.7843 53.505 70.8586 53.3969 70.9022 53.275C71.0045 52.7649 71.0442 52.244 71.0195 51.7241V45.8493H70.4528C70.303 45.8412 70.1552 45.8798 70.0282 45.9598C69.9012 46.0397 69.8015 46.1571 69.7429 46.2961C69.5749 46.7747 69.4954 47.2803 69.5084 47.7878H68.7203L68.7008 44.673ZM67.7889 51.9016L68.2839 52.815C67.97 53.3383 67.5636 53.7992 67.0855 54.1753C66.7045 54.4459 66.2486 54.5885 65.7829 54.5827C65.3498 54.5942 64.9221 54.4834 64.5481 54.2628C64.1741 54.0422 63.8686 53.7205 63.6661 53.3341C63.1117 52.208 62.858 50.9554 62.9301 49.7001C62.9129 48.7575 63.0493 47.8184 63.3339 46.9204C63.5371 46.2217 63.935 45.5968 64.4803 45.1198C64.9666 44.7233 65.5745 44.5095 66.1997 44.5153C66.5475 44.5166 66.8947 44.5541 67.2353 44.627C67.5577 44.6961 67.8723 44.7997 68.1732 44.9358V47.3016H66.8706C66.8426 46.8405 66.7462 46.3864 66.584 45.9544C66.5449 45.8361 66.4707 45.7326 66.3717 45.6574C66.2733 45.5824 66.1541 45.5393 66.0304 45.5338C65.8637 45.54 65.7047 45.6051 65.581 45.7178C65.4006 45.8999 65.2703 46.1265 65.2032 46.375C65.0732 46.7628 64.9857 47.1639 64.9427 47.571C64.8703 48.2013 64.8377 48.8356 64.845 49.4701C64.8382 50.1171 64.8861 50.7634 64.9883 51.4021C65.049 51.8364 65.2045 52.2517 65.4442 52.6178C65.5367 52.7523 65.6604 52.8616 65.8044 52.9362C65.949 53.0107 66.1092 53.0481 66.2714 53.045C66.5241 53.0446 66.7696 52.959 66.9683 52.8018C67.2874 52.5402 67.5649 52.2298 67.7889 51.8818V51.9016ZM59.4521 54.8324C59.2417 55.5919 58.9806 56.3362 58.6705 57.0601C58.4836 57.5117 58.2115 57.9224 57.8694 58.2693C57.7285 58.4031 57.5627 58.5074 57.3816 58.5762C57.2005 58.645 57.0077 58.6769 56.8143 58.6701C56.505 58.6745 56.1985 58.6118 55.9155 58.4861V56.2453H56.6645C56.6895 56.4762 56.7603 56.6997 56.8729 56.9024C56.9136 56.9573 56.9669 57.0014 57.028 57.0311C57.0893 57.0609 57.1567 57.0754 57.2246 57.0733C57.3079 57.0711 57.3898 57.0513 57.465 57.015C57.5402 56.9788 57.607 56.927 57.661 56.863C57.8508 56.6339 58.0006 56.3739 58.1039 56.0941C58.2689 55.7217 58.4708 55.1631 58.7096 54.4184H58.3449L56.6645 47.0321C56.5891 46.672 56.4934 46.3166 56.3779 45.9676C56.3258 45.8081 56.2465 45.6591 56.1434 45.5273C56.0569 45.4273 55.9439 45.3544 55.8178 45.317V44.6598H59.0157V45.317C58.8462 45.36 58.6924 45.4512 58.5728 45.5798C58.4708 45.7374 58.4228 45.9244 58.4361 46.1121C58.4475 46.5264 58.5021 46.9382 58.5989 47.341L59.5238 51.619L60.5398 47.8667C60.6266 47.5513 60.6918 47.2753 60.7352 47.0387C60.7759 46.8065 60.7977 46.5713 60.8003 46.3355C60.8059 46.1065 60.752 45.88 60.644 45.6784C60.6006 45.5926 60.5389 45.5176 60.4635 45.4585C60.3881 45.3995 60.3008 45.3579 60.2076 45.3367V44.6796H62.7022V45.3367C62.591 45.3888 62.4896 45.46 62.4026 45.547C62.3206 45.6516 62.2487 45.7638 62.1876 45.8821C62.0987 46.0814 62.0204 46.2855 61.9532 46.4933C61.8555 46.7693 61.7317 47.1504 61.5689 47.7287L59.4521 54.8324ZM52.4374 53.1698V45.8033H51.3432C51.2112 48.3105 50.7445 50.7884 49.9559 53.1698H52.4374ZM50.2164 54.3921C50.1152 54.389 50.0145 54.4078 49.9213 54.4475C49.8279 54.4872 49.7442 54.5467 49.6759 54.6221C49.4682 54.935 49.3223 55.2852 49.246 55.6538C49.084 56.2779 48.9644 56.9125 48.8878 57.553H48.1192V53.1698H48.9399C49.3972 52.0278 49.7524 50.8468 50.0015 49.641C50.2592 48.5639 50.4054 47.4628 50.4379 46.3553C50.4552 46.0858 50.4106 45.8159 50.3076 45.5667C50.2543 45.4849 50.1819 45.4175 50.0967 45.3705C50.0115 45.3236 49.9162 45.2984 49.8191 45.2973V44.6401H54.9776V45.2973C54.5216 45.363 54.2872 45.8427 54.2872 46.743V53.1501H55.3228V57.5333H54.5412C54.4634 56.8686 54.3415 56.21 54.1764 55.5618C54.1051 55.2176 53.9702 54.8899 53.7791 54.5958C53.6957 54.5228 53.5984 54.4676 53.4932 54.4337C53.3878 54.3998 53.2769 54.3879 53.1669 54.3987L50.2164 54.3921ZM46.6733 52.0527C46.648 52.4763 46.6965 52.9011 46.8166 53.3078C46.8612 53.4234 46.9353 53.525 47.0314 53.6023C47.1275 53.6796 47.2421 53.7299 47.3637 53.7481V54.4053H44.2048V53.7481C44.321 53.7242 44.4285 53.6687 44.5157 53.5876C44.603 53.5066 44.6666 53.403 44.6998 53.2881C44.7954 52.8838 44.8348 52.468 44.817 52.0527V50.0221H42.7068V52.0527C42.6777 52.4954 42.724 52.94 42.8436 53.367C42.8856 53.4688 42.9525 53.5583 43.0378 53.6271C43.1232 53.6961 43.2244 53.7422 43.332 53.7613V54.4184H40.1732V53.7613C40.2924 53.7414 40.4046 53.6911 40.4993 53.6152C40.5938 53.5393 40.6677 53.4403 40.7137 53.3275C40.8341 52.9186 40.8826 52.4916 40.857 52.0658V47.0124C40.8953 46.5676 40.8398 46.1197 40.6942 45.6981C40.6372 45.6039 40.5614 45.5225 40.4718 45.4593C40.3821 45.3959 40.2804 45.3519 40.1732 45.3301V44.673H43.3255V45.3301C43.2145 45.35 43.1106 45.3986 43.0238 45.4712C42.9371 45.5438 42.8705 45.6378 42.8305 45.7441C42.728 46.163 42.6863 46.5946 42.7068 47.0256V48.767H44.817V47.0124C44.8482 46.5692 44.7996 46.1239 44.6737 45.6981C44.627 45.6065 44.5598 45.5273 44.4772 45.4668C44.3946 45.4063 44.299 45.3663 44.1983 45.3498V44.6927H47.3637V45.3498C47.2416 45.3693 47.1268 45.4208 47.0307 45.4993C46.9347 45.5777 46.8608 45.6802 46.8166 45.7967C46.6984 46.2016 46.65 46.6238 46.6733 47.0453V52.0527ZM38.4276 51.9344C38.4069 52.3755 38.4442 52.8174 38.5384 53.2487C38.591 53.3686 38.6691 53.4753 38.767 53.5616C38.8648 53.6478 38.9802 53.7115 39.105 53.7481V54.4053H35.7377V53.7481C35.8602 53.7171 35.9748 53.66 36.0736 53.5807C36.1725 53.5014 36.2533 53.4016 36.3109 53.2881C36.4057 52.8436 36.4408 52.3883 36.4151 51.9344V48.1033C36.4151 46.9467 36.4151 46.0661 36.4737 45.4747H36.4346L33.393 51.941C33.3708 52.3825 33.4103 52.8248 33.5102 53.2553C33.5632 53.3768 33.642 53.4851 33.741 53.5725C33.8401 53.6599 33.9569 53.7244 34.0834 53.7613V54.4184H30.7226V53.7613C30.846 53.7234 30.9599 53.6593 31.0566 53.5731C31.1532 53.4869 31.2303 53.3808 31.2827 53.2618C31.3902 52.8327 31.4319 52.3894 31.4064 51.9476V43.4836C31.4302 43.042 31.3907 42.5994 31.2892 42.1693C31.2354 42.0501 31.1571 41.9439 31.0593 41.8578C30.9616 41.7717 30.8468 41.7076 30.7226 41.6698V41.0324H34.0834V41.6896C33.9578 41.732 33.8421 41.8 33.7436 41.8893C33.645 41.9786 33.5656 42.0873 33.5102 42.2087C33.4093 42.6389 33.3698 43.0815 33.393 43.523V47.8338C33.393 48.6487 33.393 49.2927 33.3474 49.7658H33.3864L36.4151 43.2864C36.4332 42.9084 36.3959 42.5297 36.3043 42.1627C36.2473 42.0487 36.1675 41.9478 36.07 41.8664C35.9725 41.785 35.8594 41.7248 35.7377 41.6896V41.0324H39.0789V41.6896C38.9562 41.7307 38.8432 41.7969 38.7468 41.8839C38.6504 41.9709 38.5729 42.077 38.5188 42.1956C38.4182 42.6258 38.3787 43.0684 38.4016 43.5098L38.4276 51.9344ZM25.1668 49.3847C25.1324 50.4295 25.2331 51.4744 25.4664 52.493C25.6749 53.1501 25.981 53.5313 26.3913 53.5313C26.4998 53.5321 26.607 53.5083 26.7051 53.4617C26.8031 53.415 26.8896 53.3467 26.958 53.2618C27.1444 53.0404 27.2801 52.7801 27.3553 52.4996C27.4558 52.1076 27.5212 51.7073 27.5507 51.3036C27.5897 50.8304 27.6093 50.3113 27.6093 49.7264C27.6451 48.6681 27.5422 47.6098 27.3032 46.5787C27.1034 45.8821 26.8038 45.5338 26.4043 45.5338C26.2616 45.5349 26.1217 45.5744 25.9992 45.6484C25.8766 45.7224 25.7759 45.828 25.7074 45.9544C25.4961 46.3444 25.3654 46.7737 25.3232 47.2161C25.2193 47.9342 25.1671 48.6589 25.1668 49.3847ZM26.2936 54.5498C25.7128 54.5636 25.1435 54.386 24.6718 54.0438C24.16 53.6282 23.787 53.0638 23.6037 52.4273C23.3205 51.5135 23.1906 50.5585 23.2194 49.6016C23.2053 48.8372 23.2818 48.0738 23.4474 47.3278C23.5675 46.7624 23.7882 46.2236 24.0987 45.7376C24.3504 45.3484 24.6954 45.0297 25.1017 44.811C25.5066 44.6096 25.953 44.5082 26.4043 44.5153C26.8691 44.4938 27.331 44.5983 27.7422 44.8178C28.1534 45.0374 28.4988 45.364 28.7426 45.7638C29.3341 46.8875 29.6068 48.1541 29.5307 49.4241C29.5548 50.392 29.4229 51.3575 29.1399 52.2827C28.9378 52.9527 28.5435 53.5473 28.0066 53.9913C27.5118 54.3622 26.9099 54.5584 26.2936 54.5498ZM17.7484 51.1787C17.7164 51.7844 17.8073 52.3904 18.0154 52.9596C18.0863 53.1319 18.2081 53.2781 18.3642 53.3781C18.5204 53.478 18.7034 53.5269 18.8882 53.5181C19.2789 53.5181 19.5786 53.2027 19.787 52.5718C20.0268 51.6928 20.1322 50.782 20.0996 49.871C20.136 48.8988 20.0418 47.9262 19.8195 46.9796C19.6372 46.3553 19.3441 46.0398 18.9533 46.0398C18.7458 46.0431 18.5467 46.1226 18.3932 46.2633C18.1927 46.4422 18.0385 46.6678 17.9438 46.9204C17.8279 47.2197 17.7704 47.5388 17.7744 47.8601L17.7484 51.1787ZM17.7484 56.1467C17.738 56.4936 17.7554 56.8408 17.8005 57.185C17.8215 57.3575 17.8842 57.5222 17.9828 57.6647C18.1036 57.807 18.2652 57.908 18.4453 57.9538V58.611H15.2538V57.9538C15.4167 57.8915 15.5621 57.79 15.6772 57.6581C15.7642 57.5133 15.8218 57.3525 15.8465 57.185C15.8855 56.8404 15.9007 56.4934 15.8921 56.1467V47.6038C15.8921 47.1438 15.8921 46.8153 15.8921 46.6181C15.8894 46.4507 15.8741 46.2838 15.8465 46.1187C15.8262 46.0016 15.7934 45.887 15.7488 45.777C15.7008 45.6889 15.6367 45.6109 15.5599 45.547C15.4469 45.4674 15.3214 45.4074 15.1887 45.3696V44.7124L16.9342 44.5941H17.7223L17.6246 46.0136H17.7028C17.9792 45.5688 18.327 45.1735 18.7318 44.8438C19.0106 44.6161 19.3567 44.4889 19.7153 44.4824C20.0905 44.4852 20.4557 44.6048 20.7611 44.8247C21.0664 45.0446 21.2972 45.3542 21.4218 45.7113C21.8658 46.884 22.061 48.1376 21.9949 49.3913C22.0177 50.3491 21.9036 51.3051 21.6562 52.2301C21.4958 52.8868 21.1469 53.4811 20.6532 53.9387C20.1981 54.3292 19.6155 54.5353 19.0184 54.517C18.5719 54.5174 18.1295 54.4303 17.7158 54.2607L17.7484 56.1467ZM11.6064 45.8493V52.0527C11.5902 52.4708 11.6341 52.8892 11.7367 53.2947C11.7644 53.4117 11.8265 53.5177 11.9148 53.5986C12.0031 53.6795 12.1136 53.7316 12.2317 53.7481V54.4053H9.07283V53.7481C9.19163 53.7271 9.30333 53.6764 9.39777 53.6006C9.49221 53.5248 9.56633 53.4265 9.61342 53.3144C9.73821 52.9063 9.7911 52.4792 9.76974 52.0527V47.0124C9.80673 46.5677 9.75124 46.12 9.60691 45.6981C9.55585 45.5958 9.48238 45.5066 9.3921 45.4372C9.3019 45.3677 9.19717 45.3199 9.08586 45.2973V44.6401H14.5243V47.9258H13.6776C13.6074 47.3138 13.4288 46.7195 13.1501 46.1713C13.0401 46.0361 12.8987 45.9306 12.7384 45.8641C12.5782 45.7975 12.404 45.7721 12.2317 45.7901L11.6064 45.8493ZM2.72901 49.135H5.03467L4.01211 43.5887L2.72901 49.135ZM5.21053 50.2324H2.48151L2.27309 51.1656C2.21447 51.4284 2.16237 51.6781 2.12329 51.9213C2.0888 52.1804 2.0714 52.4417 2.07118 52.7033C2.07118 53.3604 2.29263 53.689 2.7225 53.735V54.3921H0V53.735C0.158818 53.7109 0.305341 53.6347 0.416842 53.5181C0.554606 53.3389 0.664427 53.1394 0.7425 52.9267C0.869481 52.5791 0.973913 52.2234 1.05513 51.8621L3.72553 40.9733H5.43849L7.55526 51.9476C7.62359 52.2916 7.7106 52.6316 7.81579 52.9661C7.86881 53.1459 7.95257 53.3149 8.06329 53.4656C8.17707 53.599 8.32616 53.6971 8.49316 53.7481V54.4053H4.93046V53.7481C5.02802 53.736 5.12216 53.7042 5.20722 53.6545C5.29228 53.6049 5.36652 53.5383 5.42546 53.459C5.5479 53.2631 5.60496 53.0328 5.58829 52.8018C5.5837 52.5822 5.56849 52.3629 5.5427 52.1447C5.5427 51.9016 5.46454 51.5861 5.39289 51.205L5.21053 50.2324Z" fill="#3C55A5"/>
</g>
<defs>
<linearGradient id="paint0_linear_104_22" x1="19.0444" y1="48.057" x2="86.7811" y2="48.057" gradientUnits="userSpaceOnUse">
<stop stop-color="#72B732"/>
<stop offset="1" stop-color="#C3D62F"/>
</linearGradient>
<linearGradient id="paint1_linear_104_22" x1="6.93701" y1="45.9346" x2="98.0689" y2="45.9346" gradientUnits="userSpaceOnUse">
<stop stop-color="#72B732"/>
<stop offset="1" stop-color="#C3D62F"/>
</linearGradient>
<clipPath id="clip0_104_22">
<rect width="99" height="92" fill="white"/>
</clipPath>
</defs>
</svg>
