<svg width="24" height="24" viewBox="0 0 24 24" fill="none" xmlns="http://www.w3.org/2000/svg">
<path d="M19.9268 4.0625C17.9512 2.09375 15.3171 1 12.5366 1C6.7561 1 2.07317 5.66667 2.07317 11.4271C2.07317 13.25 2.58537 15.0729 3.46341 16.6042L2 22L7.56098 20.5417C9.09756 21.3438 10.7805 21.7812 12.5366 21.7812C18.3171 21.7812 23 17.1146 23 11.3542C22.9268 8.65625 21.9024 6.03125 19.9268 4.0625ZM17.5854 15.1458C17.3659 15.7292 16.3415 16.3125 15.8293 16.3854C15.3902 16.4583 14.8049 16.4583 14.2195 16.3125C13.8537 16.1667 13.3415 16.0208 12.7561 15.7292C10.122 14.6354 8.43903 12.0104 8.29268 11.7917C8.14634 11.6458 7.19512 10.4062 7.19512 9.09375C7.19512 7.78125 7.85366 7.19792 8.07317 6.90625C8.29268 6.61458 8.58536 6.61458 8.80488 6.61458C8.95122 6.61458 9.17073 6.61458 9.31707 6.61458C9.46341 6.61458 9.68293 6.54167 9.90244 7.05208C10.122 7.5625 10.6341 8.875 10.7073 8.94792C10.7805 9.09375 10.7805 9.23958 10.7073 9.38542C10.6341 9.53125 10.561 9.67708 10.4146 9.82292C10.2683 9.96875 10.1219 10.1875 10.0488 10.2604C9.90244 10.4062 9.7561 10.5521 9.90244 10.7708C10.0488 11.0625 10.561 11.8646 11.3659 12.5937C12.3902 13.4687 13.1951 13.7604 13.4878 13.9063C13.7805 14.0521 13.9268 13.9792 14.0732 13.8333C14.2195 13.6875 14.7317 13.1042 14.878 12.8125C15.0244 12.5208 15.2439 12.5938 15.4634 12.6667C15.6829 12.7396 17 13.3958 17.2195 13.5417C17.5122 13.6875 17.6585 13.7604 17.7317 13.8333C17.8049 14.0521 17.8049 14.5625 17.5854 15.1458Z" fill="#48C95F"/>
</svg>
